Coordinates
version=1
nRows=14
nColumns=33
inDegrees=yes

Units are S.I. units (second, meters, Newtons, ...)
Angles are in degrees.

endheader
time	ground_thorax_rot_x	ground_thorax_rot_y	ground_thorax_rot_z	ground_thorax_tx	ground_thorax_ty	ground_thorax_tz	clav_prot_r	clav_elev_r	scapula_abduction_r	scapula_elevation_r	scapula_upward_rot_r	scapula_winging_r	shoulder_elv_r	plane_of_elev_r	axial_rot_r	elbow_flexion_r	pro_sup_r	wrist_flex_r	wrist_dev_r	clav_prot_l	clav_elev_l	scapula_abduction_l	scapula_elevation_l	scapula_upward_rot_l	scapula_winging_l	shoulder_elv_l	plane_of_elev_l	axial_rot_l	elbow_flexion_l	pro_sup_l	wrist_flex_l	wrist_dev_l
      1.82000000	      0.52091362	      4.48383024	     11.94660168	     -0.11016392	      1.03268440	      0.02523088	      5.88764503	      7.40663469	     25.61930205	      2.50020246	     27.09079987	    -12.83594532	     25.43610224	    -62.20665508	     54.34202977	     61.43390285	    -26.95823845	     26.43260776	    -24.99999983	     18.29324918	    -10.49910121	    -26.71906516	    -11.11806260	    -34.23359670	      5.60017038	     63.31020417	    -20.03921436	      0.24531731	     54.98811668	      4.15483498	     24.41866147	     -5.60944527
      1.83000000	      0.46980905	      4.43699257	     11.86620097	     -0.11010458	      1.03180136	      0.02471677	      6.16308017	      7.16792474	     26.37620758	      2.23048314	     27.33406308	    -13.06170274	     25.24976401	    -61.00014083	     54.89205744	     59.94188774	    -28.55815500	     25.03897489	    -24.99999983	     18.54403084	    -10.62148979	    -27.06324332	    -10.73938674	    -33.68291389	      5.82584048	     63.01318700	    -18.95142047	      0.32011251	     53.13433512	      3.85873170	     25.25818937	     -5.07739052
      1.84000000	      0.39956828	      4.38980540	     11.84446523	     -0.11002718	      1.03117313	      0.02431352	      6.43592862	      6.79064804	     27.09103086	      1.86741743	     27.50881801	    -13.24444494	     25.03443895	    -59.77006769	     55.56868346	     58.18276276	    -30.26551293	     24.28141438	    -24.99999983	     18.80749986	    -10.88513881	    -27.42958745	    -10.27543375	    -33.21879871	      6.03187145	     62.80184383	    -18.00929908	      0.42921511	     51.21764204	      3.71724218	     25.88686461	     -4.63393501
      1.85000000	      0.36240472	      4.49102874	     11.87787126	     -0.10987429	      1.03099434	      0.02403782	      6.77558495	      6.13453795	     27.73432178	      1.35585122	     27.39700490	    -13.34522926	     25.04411010	    -58.92309295	     55.66547246	     56.47309131	    -30.71697411	     23.90222476	    -24.99999983	     19.03622863	    -11.51291235	    -27.70464036	     -9.51700939	    -32.81055142	      6.11326381	     62.89660688	    -17.37603154	      0.19282967	     49.27742302	      3.91626161	     25.94046823	     -4.28059383
      1.86000000	      0.15039132	      4.31590372	     11.99099135	     -0.10991887	      1.03024893	      0.02335745	      6.94065486	      6.00354259	     28.46956371	      1.10714107	     27.90549291	    -13.57966316	     23.59474974	    -56.71865993	     58.30670479	     53.18764512	    -39.06948959	     26.48929853	    -24.99999983	     19.43001640	    -11.53833778	    -28.33022840	     -9.31677423	    -32.46606208	      6.48044828	     62.38272981	    -16.32773642	      0.90618814	     47.26613302	      3.76922922	     27.35687804	     -4.22108896
      1.87000000	      0.15528423	      4.25604019	     12.02213070	     -0.10970385	      1.02971920	      0.02258323	      7.04005733	      6.30727201	     29.70266972	      0.99593566	     29.24407719	    -14.06694823	     20.75143316	    -54.67818084	     61.96640413	     47.78890185	    -46.44634927	     34.36568358	    -24.99999983	     19.62555273	    -11.74999438	    -28.59288983	     -8.90587903	    -32.00607921	      6.62690153	     61.93879289	    -15.24385387	      0.97029815	     45.09887002	      4.81051137	     26.87211547	     -4.28853038
      1.88000000	     -1.94462954	      2.81607612	     11.73645586	     -0.11103173	      1.02901062	      0.00962735	     14.02248385	    -12.39062452	     31.31191101	     -9.85968413	     13.12639200	     -8.34578700	    -16.74282383	    -66.36548872	    117.71323011	    -63.98592968	   -157.66384853	      2.88010100	      9.11404383	     19.21803798	     -8.33001667	    -28.00881991	    -10.47542996	    -28.87664023	      7.15240762	     58.29752963	    -13.35087127	      2.43118981	     43.30208067	      5.38947540	     26.99492517	     -2.98591646
      1.89000000	     -2.52751762	      3.29632950	     11.73161335	     -0.11021262	      1.02782559	      0.00939594	     13.38560226	    -12.68869086	     30.24663043	    -10.12605129	     13.08590126	     -7.69428700	    -14.08753928	    -64.88789928	    120.73334059	    -62.01087242	   -156.91524631	      0.71208526	      5.40083385	     19.60698754	     -7.58812835	    -28.69920389	    -10.91656898	    -28.46923107	      7.67600219	     58.02362216	    -11.24865578	      1.83659338	     40.71149704	      6.06902024	     26.81719371	     -2.43898728
      1.90000000	     -2.72774910	      3.53035243	     11.68728930	     -0.10999528	      1.02768717	      0.00908438	     13.21620713	    -13.21788374	     29.97066446	    -10.60407816	     13.10500459	     -7.26571834	    -11.21135818	    -63.89032016	    122.82359174	    -59.66437522	   -157.32565489	      0.59605503	      6.57772904	     20.41440208	     -7.91364591	    -30.04654956	    -10.45518434	    -28.20995747	      8.41385615	     57.57249535	    -10.17222688	      2.58611687	     38.43385740	      6.29747727	     26.81797993	     -2.62976611
      1.91000000	     -3.01347780	      3.56414072	     11.55607163	     -0.10937425	      1.02788929	      0.00896327	     13.36865273	    -13.92230928	     30.55449574	    -11.41373674	     13.69083758	     -7.06276703	    -10.35328908	    -63.03816799	    122.77872952	    -57.34549321	   -157.11236505	      0.06015016	      6.53886250	     20.64418195	     -8.36633202	    -30.39999384	     -9.85812738	    -27.81683747	      8.59112409	     57.74680584	     -9.63156376	      2.63184618	     36.45670561	      6.57905968	     26.72669660	     -2.29508975
      1.92000000	     -3.18255644	      3.64198599	     11.44525172	     -0.10870413	      1.02749279	      0.00872229	     13.30489459	    -14.19581281	     30.91784742	    -11.90603622	     14.45751262	     -6.99162254	     -9.08366910	    -62.20176757	    123.65548125	    -54.88952387	   -156.24075403	     -0.26488562	      6.45138313	     21.02526854	     -8.37844659	    -31.03721924	     -9.63298897	    -27.41246311	      8.99059499	     57.25875661	     -8.39854810	      3.25076045	     34.14788072	      6.95215162	     26.49741440	     -2.30563059
      1.93000000	     -3.37541615	      3.73285195	     11.36570310	     -0.10824258	      1.02752019	      0.00875050	     13.52752258	    -14.71748641	     31.53361378	    -12.50221034	     14.90197001	     -6.90210493	     -8.16103520	    -61.32644246	    123.59750947	    -52.63631788	   -155.91367508	     -0.64921778	      6.45971528	     21.31343576	     -8.83957178	    -31.48937421	     -9.03399840	    -27.03264661	      9.21322708	     57.37661779	     -7.84491386	      3.05129620	     32.10306891	      7.29399600	     26.39580546	     -2.04979695
      1.94000000	     -3.43834211	      3.84385153	     11.32784740	     -0.10773475	      1.02686661	      0.00856683	     13.51018142	    -14.64547897	     31.91729544	    -12.64390806	     15.55302092	     -7.05665228	     -6.67807078	    -60.28021025	    124.67049093	    -49.98278405	   -154.24634489	     -0.48535692	      6.23628550	     21.82289843	     -8.77602357	    -32.35041228	     -8.90686777	    -26.71160532	      9.74831645	     56.66354356	     -6.49242808	      3.88211465	     29.79183956	      7.83708951	     25.88998796	     -2.42522136
      1.95000000	     -3.58718343	      3.94971474	     11.20772253	     -0.10722797	      1.02706220	      0.00863030	     13.74446811	    -15.13065989	     32.52231952	    -13.18874145	     15.94939928	     -6.97703180	     -5.76474256	    -59.45504467	    124.52433156	    -47.80737683	   -153.78959764	     -0.82468546	      6.19258088	     22.11195555	     -9.24833725	    -32.80199966	     -8.31586539	    -26.36168478	      9.95978232	     56.77742614	     -5.97781252	      3.67291088	     27.84491442	      8.21892036	     25.74831536	     -2.19840190
